<svg xmlns="http://www.w3.org/2000/svg" width="16" height="16" viewBox="0 0 16 16">
  <g id="Mobile" transform="translate(37 -11995)">
    <rect id="Rectangle_975" data-name="Rectangle 975" width="16" height="16" transform="translate(-37 11995)" fill="none"/>
    <path id="Path_259" data-name="Path 259" d="M9,0a.908.908,0,0,1,.7.3A.908.908,0,0,1,10,1V15a1.025,1.025,0,0,1-1,1H1a.908.908,0,0,1-.7-.3A.908.908,0,0,1,0,15V1A.908.908,0,0,1,.3.3.908.908,0,0,1,1,0ZM8.3,12V2.7H1.7V12Zm-4,2.7A.908.908,0,0,0,5,15a.908.908,0,0,0,.7-.3.967.967,0,0,0,0-1.4A.908.908,0,0,0,5,13a.908.908,0,0,0-.7.3.967.967,0,0,0,0,1.4Z" transform="translate(-34 11995)"/>
  </g>
</svg>
